<svg width="200" height="162" viewBox="0 0 200 162" fill="none" xmlns="http://www.w3.org/2000/svg">
<path d="M0 24C0 10.7451 10.7452 0 24 0H79.7502C84.8363 0 89.3295 3.3127 90.8333 8.17139V8.17139C92.3419 13.0451 96.8573 16.3615 101.959 16.3427L175.423 16.0726C188.675 16.0239 199.458 26.7246 199.511 39.9762L199.903 137.697C199.957 150.989 189.196 161.793 175.904 161.793H24C10.7452 161.793 0 151.048 0 137.793V24Z" fill="#0C0C0C"/>
<path d="M42.8535 115.67C41.6816 115.67 40.7588 115.289 40.085 114.527C39.4111 113.795 39.0742 112.887 39.0742 111.803C39.0742 110.953 39.2207 110.133 39.5137 109.342C39.8066 108.551 40.1875 107.818 40.6562 107.145L58.7178 71.2412C60.2412 68.8682 61.75 67.2715 63.2441 66.4512C64.7676 65.6016 65.9394 65.1768 66.7598 65.1768C68.0781 65.1768 69.0156 65.5576 69.5723 66.3193C70.1289 67.0811 70.4072 67.9893 70.4072 69.0439C70.4072 70.7725 69.8652 72.5596 68.7812 74.4053C67.8437 76.1338 66.7891 78.0674 65.6172 80.2061C64.4453 82.3154 62.8047 85.2305 60.6953 88.9512C58.7324 92.3496 56.7402 95.6455 54.7187 98.8389C52.7266 102.003 50.793 104.859 48.918 107.408C53.5469 106.939 57.9707 105.445 62.1895 102.926C66.4082 100.406 70.1289 97.3301 73.3516 93.6973C76.5449 90.123 79.0352 86.3438 80.8223 82.3594C82.6387 78.3457 83.5469 74.6543 83.5469 71.2852C83.5469 67.3594 82.5654 64.1367 80.6025 61.6172C78.6396 59.0977 75.6074 57.8379 71.5059 57.8379C68.9863 57.8379 66.4521 58.1455 63.9033 58.7607C61.3838 59.376 59.0547 60.2109 56.916 61.2656C54.7773 62.291 53.0049 63.4482 51.5986 64.7373C50.251 66.2022 49.2109 67.4766 48.4785 68.5606C47.7754 69.6445 46.9111 70.8164 45.8857 72.0762C45.0068 73.1016 44.0693 73.9365 43.0732 74.5811C42.0771 75.2256 40.9053 75.5479 39.5576 75.5479C37.0381 75.5479 35.7783 74.4346 35.7783 72.208C35.7783 70.0693 36.7598 67.7549 38.7227 65.2647C40.7148 62.7744 43.3955 60.416 46.7646 58.1895C50.1045 55.9922 53.9863 54.1758 58.4102 52.7402C62.834 51.3047 67.4189 50.5869 72.165 50.5869C77.2041 50.5869 81.3496 51.5537 84.6016 53.4873C87.8828 55.3916 90.3144 57.9844 91.8965 61.2656C93.5078 64.5469 94.3135 68.209 94.3135 72.252C94.3135 76.3242 93.3906 80.6162 91.5449 85.1279C89.7285 89.6104 87.0478 93.9023 83.5029 98.0039C79.9873 102.076 75.6953 105.577 70.6269 108.507C66.8184 110.704 62.585 112.447 57.9268 113.736C53.2686 115.025 48.2441 115.67 42.8535 115.67ZM100.466 115.274C99.4111 115.274 98.6201 115.055 98.0928 114.615C97.5947 114.205 97.3457 113.692 97.3457 113.077C97.3457 112.345 97.6533 111.583 98.2686 110.792C98.8838 110.001 99.748 109.386 100.861 108.946C102.209 108.419 103.674 107.262 105.256 105.475C106.867 103.658 108.522 101.461 110.222 98.8828C111.921 96.3047 113.635 93.4336 115.363 90.2695C117.121 87.1055 118.806 83.8975 120.417 80.6455C122.058 77.3936 123.581 74.2148 124.987 71.1094C126.423 67.9746 127.697 65.1475 128.811 62.6279C130.012 59.874 130.949 57.7061 131.623 56.124C132.297 54.542 132.722 53.5606 132.897 53.1797C133.308 52.2715 133.879 51.6123 134.611 51.2022C135.344 50.792 136.091 50.5869 136.853 50.5869C137.907 50.5869 138.713 50.8799 139.27 51.4658C139.826 52.0225 140.148 53.0332 140.236 54.4981C140.412 57.4863 140.544 60.0938 140.632 62.3203C140.72 64.5469 140.778 66.7881 140.808 69.0439C140.866 71.2705 140.895 73.9512 140.895 77.0859V83.1943C140.895 84.3076 140.866 85.4941 140.808 86.7539C140.778 87.9844 140.764 89.2881 140.764 90.665C144.279 84.2783 147.385 78.6387 150.08 73.7461C152.805 68.8535 155.178 64.7666 157.199 61.4854C158.869 58.7022 160.451 56.3438 161.945 54.4102C163.439 52.4766 164.641 51.5098 165.549 51.5098H165.856L166.12 51.4658H166.384C167.087 51.4658 167.644 51.9053 168.054 52.7842C168.464 53.6631 168.669 54.8057 168.669 56.2119C168.493 58.292 168.2 61.1045 167.79 64.6494C167.38 68.165 166.896 72.1934 166.34 76.7344C165.812 81.041 165.285 85.2744 164.758 89.4346C164.26 93.5947 163.85 97.2861 163.527 100.509C163.498 100.714 163.469 100.904 163.439 101.08C163.41 101.256 163.41 101.446 163.439 101.651L163.923 107.496C164.04 108.668 163.952 109.84 163.659 111.012C163.366 112.154 162.722 113.106 161.726 113.868C160.759 114.63 159.279 115.011 157.287 115.011C156.496 115.011 155.866 114.703 155.397 114.088C154.929 113.502 154.694 112.433 154.694 110.88C154.929 108.595 155.236 105.797 155.617 102.486C155.998 99.1758 156.408 95.6309 156.848 91.8516C157.316 88.0723 157.785 84.3369 158.254 80.6455C158.723 76.9541 159.162 73.585 159.572 70.5381L150.388 88.1162C148.952 90.8408 147.634 93.3018 146.433 95.499C145.261 97.6963 144.309 99.4688 143.576 100.816C142.258 102.604 140.925 104.186 139.577 105.563C138.229 106.91 136.94 107.584 135.71 107.584C134.509 107.584 133.791 107.262 133.557 106.617C133.322 105.943 133.19 105.284 133.161 104.64C132.985 100.479 132.854 96.29 132.766 92.0713C132.707 87.8232 132.678 83.6484 132.678 79.5469V73.79C130.891 77.8623 128.898 82.0371 126.701 86.3145C124.533 90.5918 122.277 94.6201 119.934 98.3994C117.59 102.208 115.217 105.519 112.814 108.331C110.412 111.144 108.171 112.989 106.091 113.868C104.86 114.366 103.791 114.718 102.883 114.923C101.975 115.157 101.169 115.274 100.466 115.274Z" fill="white"/>
</svg>
